<?xml version="1.0" encoding="iso-8859-1"?>
<!-- Generator: Adobe Illustrator 19.0.0, SVG Export Plug-In . SVG Version: 6.00 Build 0)  -->
<svg version="1.1" id="Layer_1" xmlns="http://www.w3.org/2000/svg" xmlns:xlink="http://www.w3.org/1999/xlink" x="0px" y="0px"
	 viewBox="0 0 511.999 511.999" style="enable-background:new 0 0 511.999 511.999;" xml:space="preserve">
<polygon style="fill:#F4B2B0;" points="144.405,162.987 255.985,13.667 367.567,162.987 "/>
<path style="fill:#B3404A;" d="M367.594,176.654c7.548,0,13.667-6.119,13.667-13.667c0-3.348-1.204-6.415-3.202-8.792L266.934,5.486
	C264.353,2.034,260.296,0,255.985,0c-4.311,0-8.368,2.034-10.949,5.486l-111.58,149.32c-3.096,4.144-3.588,9.68-1.271,14.304
	c2.318,4.624,7.047,7.544,12.218,7.544h140.266l54.624,298.327l-69.641-31.889v-72.863c0-7.548-6.119-13.667-13.667-13.667
	c-7.548,0-13.667,6.119-13.667,13.667v72.863l-69.641,31.889L214.76,245.14c1.36-7.425-3.557-14.546-10.981-15.905
	c-7.432-1.363-14.546,3.557-15.905,10.981l-46.81,255.655c-0.917,5.012,1.029,10.119,5.05,13.247
	c4.022,3.13,9.449,3.761,14.084,1.64l95.787-43.862l95.787,43.862c1.819,0.832,3.758,1.241,5.688,1.241
	c2.989,0,5.951-0.98,8.396-2.881c4.021-3.13,5.968-8.236,5.05-13.247l-58.449-319.217h55.109
	C367.575,176.654,367.583,176.655,367.594,176.654z M171.678,149.32l84.308-112.821l84.308,112.821H171.678z"/>
<g>
</g>
<g>
</g>
<g>
</g>
<g>
</g>
<g>
</g>
<g>
</g>
<g>
</g>
<g>
</g>
<g>
</g>
<g>
</g>
<g>
</g>
<g>
</g>
<g>
</g>
<g>
</g>
<g>
</g>
</svg>
